<?xml version="1.0" encoding="us-ascii" standalone="no"?><svg xmlns="http://www.w3.org/2000/svg" xmlns:xlink="http://www.w3.org/1999/xlink" contentStyleType="text/css" height="527px" preserveAspectRatio="none" style="width:1032px;height:527px;background:#FFFFFF;" version="1.1" viewBox="0 0 1032 527" width="1032px" zoomAndPan="magnify"><defs/><g><!--cluster build--><g id="cluster_build"><rect fill="none" height="183" rx="2.5" ry="2.5" style="stroke:#181818;stroke-width:1.0;" width="242" x="84.5" y="106.5"/><text fill="#000000" font-family="sans-serif" font-size="14" font-weight="bold" lengthAdjust="spacing" textLength="105" x="153" y="121.4951">Development</text></g><!--cluster promote_to_test--><g id="cluster_promote_to_test"><rect fill="none" height="203" rx="2.5" ry="2.5" style="stroke:#181818;stroke-width:1.0;" width="156" x="350.5" y="202.5"/><text fill="#000000" font-family="sans-serif" font-size="14" font-weight="bold" lengthAdjust="spacing" textLength="37" x="410" y="217.4951">Test</text></g><!--cluster promote_to_acceptance--><g id="cluster_promote_to_acceptance"><rect fill="none" height="87" rx="2.5" ry="2.5" style="stroke:#181818;stroke-width:1.0;" width="156" x="530.5" y="318.5"/><text fill="#000000" font-family="sans-serif" font-size="14" font-weight="bold" lengthAdjust="spacing" textLength="94" x="561.5" y="333.4951">Acceptance</text></g><!--cluster promote_to_pro--><g id="cluster_promote_to_pro"><rect fill="none" height="203" rx="2.5" ry="2.5" style="stroke:#181818;stroke-width:1.0;" width="190" x="710.5" y="318.5"/><text fill="#000000" font-family="sans-serif" font-size="14" font-weight="bold" lengthAdjust="spacing" textLength="89" x="761" y="333.4951">Production</text></g><!--entity static_code_analysis--><g id="elem_static_code_analysis"><rect fill="#F1F1F1" height="36.2969" rx="2.5" ry="2.5" style="stroke:#181818;stroke-width:0.5;" width="210" x="100.5" y="237.5"/><text fill="#000000" font-family="sans-serif" font-size="14" lengthAdjust="spacing" textLength="190" x="110.5" y="260.4951">An&#225;lisis est&#225;tico de c&#243;digo</text></g><!--entity unit_test--><g id="elem_unit_test"><rect fill="#F1F1F1" height="36.2969" rx="2.5" ry="2.5" style="stroke:#181818;stroke-width:0.5;" width="118" x="103.5" y="141.5"/><text fill="#000000" font-family="sans-serif" font-size="14" lengthAdjust="spacing" textLength="98" x="113.5" y="164.4951">Tets unitarios</text></g><!--entity code_promotion_test--><g id="elem_code_promotion_test"><rect fill="#F1F1F1" height="36.2969" rx="2.5" ry="2.5" style="stroke:#181818;stroke-width:0.5;" width="123" x="367" y="237.5"/><text fill="#000000" font-family="sans-serif" font-size="14" lengthAdjust="spacing" textLength="103" x="377" y="260.4951">Desplegar ETL</text></g><!--entity performance_test--><g id="elem_performance_test"><rect fill="#F1F1F1" height="36.2969" rx="2.5" ry="2.5" style="stroke:#181818;stroke-width:0.5;" width="124" x="366.5" y="353.5"/><text fill="#000000" font-family="sans-serif" font-size="14" lengthAdjust="spacing" textLength="104" x="376.5" y="376.4951">Tests de carga</text></g><!--entity code_promotion_acc--><g id="elem_code_promotion_acc"><rect fill="#F1F1F1" height="36.2969" rx="2.5" ry="2.5" style="stroke:#181818;stroke-width:0.5;" width="123" x="547" y="353.5"/><text fill="#000000" font-family="sans-serif" font-size="14" lengthAdjust="spacing" textLength="103" x="557" y="376.4951">Desplegar ETL</text></g><!--entity promotion_check--><g id="elem_promotion_check"><rect fill="#F1F1F1" height="36.2969" rx="2.5" ry="2.5" style="stroke:#181818;stroke-width:0.5;" width="158" x="726.5" y="353.5"/><text fill="#000000" font-family="sans-serif" font-size="14" lengthAdjust="spacing" textLength="138" x="736.5" y="376.4951">Aprobaci&#243;n manual</text></g><!--entity code_promotion_pro--><g id="elem_code_promotion_pro"><rect fill="#F1F1F1" height="36.2969" rx="2.5" ry="2.5" style="stroke:#181818;stroke-width:0.5;" width="123" x="744" y="469.5"/><text fill="#000000" font-family="sans-serif" font-size="14" lengthAdjust="spacing" textLength="103" x="754" y="492.4951">Desplegar ETL</text></g><!--entity user--><g id="elem_user"><ellipse cx="58.5" cy="14" fill="#F1F1F1" rx="8" ry="8" style="stroke:#181818;stroke-width:0.5;"/><path d="M58.5,22 L58.5,49 M45.5,30 L71.5,30 M58.5,49 L45.5,64 M58.5,49 L71.5,64 " fill="none" style="stroke:#181818;stroke-width:0.5;"/><text fill="#000000" font-family="sans-serif" font-size="14" lengthAdjust="spacing" textLength="96" x="10.5" y="78.4951">Desarrollador</text></g><!--entity PO--><g id="elem_PO"><ellipse cx="972.5" cy="342" fill="#F1F1F1" rx="8" ry="8" style="stroke:#181818;stroke-width:0.5;"/><path d="M972.5,350 L972.5,377 M959.5,358 L985.5,358 M972.5,377 L959.5,392 M972.5,377 L985.5,392 " fill="none" style="stroke:#181818;stroke-width:0.5;"/><text fill="#000000" font-family="sans-serif" font-size="14" lengthAdjust="spacing" textLength="106" x="919.5" y="406.4951">Product Owner</text></g><!--entity git--><g id="elem_git"><rect fill="#F1F1F1" height="36.2969" rx="2.5" ry="2.5" style="stroke:#181818;stroke-width:0.5;" width="42" x="141.5" y="25.5"/><text fill="#000000" font-family="sans-serif" font-size="14" lengthAdjust="spacing" textLength="22" x="151.5" y="48.4951">Git</text></g><!--entity sonar--><g id="elem_sonar"><rect fill="#F1F1F1" height="36.2969" rx="2.5" ry="2.5" style="stroke:#181818;stroke-width:0.5;" width="61" x="7" y="141.5"/><text fill="#000000" font-family="sans-serif" font-size="14" lengthAdjust="spacing" textLength="41" x="17" y="164.4951">Sonar</text></g><!--entity k6--><g id="elem_k6"><rect fill="#F1F1F1" height="36.2969" rx="2.5" ry="2.5" style="stroke:#181818;stroke-width:0.5;" width="39" x="409" y="469.5"/><text fill="#000000" font-family="sans-serif" font-size="14" lengthAdjust="spacing" textLength="19" x="419" y="492.4951">K6</text></g><!--link user to git--><g id="link_user_git"><path d="M106.5425,43.5 C118.784,43.5 125.319,43.5 135.414,43.5 " fill="none" id="user-to-git" style="stroke:#181818;stroke-width:1.0;"/><polygon fill="#181818" points="141.414,43.5,132.414,39.5,136.414,43.5,132.414,47.5,141.414,43.5" style="stroke:#181818;stroke-width:1.0;"/><text fill="#000000" font-family="sans-serif" font-size="13" lengthAdjust="spacing" textLength="31" x="108.478" y="56.5669">push</text></g><!--link git to unit_test--><g id="link_git_unit_test"><path d="M162.5,61.625 C162.5,83.29 162.5,113.342 162.5,135.119 " fill="none" id="git-to-unit_test" style="stroke:#181818;stroke-width:1.0;"/><polygon fill="#181818" points="162.5,141.119,166.5,132.119,162.5,136.119,158.5,132.119,162.5,141.119" style="stroke:#181818;stroke-width:1.0;"/></g><!--link unit_test to static_code_analysis--><g id="link_unit_test_static_code_analysis"><path d="M162.5,177.557 C162.5,194.612 162.5,214.063 162.5,231.198 " fill="none" id="unit_test-to-static_code_analysis" style="stroke:#181818;stroke-width:1.0;"/><polygon fill="#181818" points="162.5,237.198,166.5,228.198,162.5,232.198,158.5,228.198,162.5,237.198" style="stroke:#181818;stroke-width:1.0;"/></g><!--reverse link sonar to unit_test--><g id="link_sonar_unit_test"><path d="M74.0784,153.5 C84.7755,153.5 91.1779,153.5 103.406,153.5 " fill="none" id="sonar-backto-unit_test" style="stroke:#181818;stroke-width:1.0;"/><polygon fill="#181818" points="68.0784,153.5,77.0784,157.5,73.0784,153.5,77.0784,149.5,68.0784,153.5" style="stroke:#181818;stroke-width:1.0;"/></g><!--link sonar to unit_test--><g id="link_sonar_unit_test"><path d="M68.0784,165.5 C78.7755,165.5 85.1779,165.5 97.406,165.5 " fill="none" id="sonar-to-unit_test" style="stroke:#181818;stroke-width:1.0;"/><polygon fill="#181818" points="103.406,165.5,94.406,161.5,98.406,165.5,94.406,169.5,103.406,165.5" style="stroke:#181818;stroke-width:1.0;"/></g><!--reverse link sonar to static_code_analysis--><g id="link_sonar_static_code_analysis"><path d="M47.6667,183.713 C47.6667,210.011 47.6667,249.5 47.6667,249.5 C47.6667,249.5 71.2709,249.5 100.2229,249.5 " fill="none" id="sonar-backto-static_code_analysis" style="stroke:#181818;stroke-width:1.0;"/><polygon fill="#181818" points="47.6667,177.713,43.6667,186.713,47.6667,182.713,51.6667,186.713,47.6667,177.713" style="stroke:#181818;stroke-width:1.0;"/></g><!--reverse link static_code_analysis to sonar--><g id="link_static_code_analysis_sonar"><path d="M94.3146,261.5 C55.7407,261.5 27.3333,261.5 27.3333,261.5 C27.3333,261.5 27.3333,207.074 27.3333,177.736 " fill="none" id="static_code_analysis-backto-sonar" style="stroke:#181818;stroke-width:1.0;"/><polygon fill="#181818" points="100.3146,261.5,91.3146,257.5,95.3146,261.5,91.3146,265.5,100.3146,261.5" style="stroke:#181818;stroke-width:1.0;"/></g><!--link static_code_analysis to code_promotion_test--><g id="link_static_code_analysis_code_promotion_test"><path d="M310.796,255.5 C329.968,255.5 343.384,255.5 360.77,255.5 " fill="none" id="static_code_analysis-to-code_promotion_test" style="stroke:#181818;stroke-width:1.0;"/><polygon fill="#181818" points="366.77,255.5,357.77,251.5,361.77,255.5,357.77,259.5,366.77,255.5" style="stroke:#181818;stroke-width:1.0;"/></g><!--link code_promotion_test to performance_test--><g id="link_code_promotion_test_performance_test"><path d="M428.5,273.625 C428.5,295.29 428.5,325.342 428.5,347.119 " fill="none" id="code_promotion_test-to-performance_test" style="stroke:#181818;stroke-width:1.0;"/><polygon fill="#181818" points="428.5,353.119,432.5,344.119,428.5,348.119,424.5,344.119,428.5,353.119" style="stroke:#181818;stroke-width:1.0;"/></g><!--link performance_test to k6--><g id="link_performance_test_k6"><path d="M435,389.625 C435,411.29 435,441.342 435,463.1195 " fill="none" id="performance_test-to-k6" style="stroke:#181818;stroke-width:1.0;"/><polygon fill="#181818" points="435,469.1195,439,460.1195,435,464.1195,431,460.1195,435,469.1195" style="stroke:#181818;stroke-width:1.0;"/></g><!--reverse link performance_test to k6--><g id="link_performance_test_k6"><path d="M422,395.625 C422,417.29 422,447.342 422,469.1195 " fill="none" id="performance_test-backto-k6" style="stroke:#181818;stroke-width:1.0;"/><polygon fill="#181818" points="422,389.625,418,398.625,422,394.625,426,398.625,422,389.625" style="stroke:#181818;stroke-width:1.0;"/></g><!--link performance_test to code_promotion_acc--><g id="link_performance_test_code_promotion_acc"><path d="M490.698,371.5 C508.887,371.5 522.757,371.5 540.909,371.5 " fill="none" id="performance_test-to-code_promotion_acc" style="stroke:#181818;stroke-width:1.0;"/><polygon fill="#181818" points="546.909,371.5,537.909,367.5,541.909,371.5,537.909,375.5,546.909,371.5" style="stroke:#181818;stroke-width:1.0;"/></g><!--link code_promotion_acc to promotion_check--><g id="link_code_promotion_acc_promotion_check"><path d="M670.022,371.5 C687.859,371.5 701.589,371.5 720.345,371.5 " fill="none" id="code_promotion_acc-to-promotion_check" style="stroke:#181818;stroke-width:1.0;"/><polygon fill="#181818" points="726.345,371.5,717.345,367.5,721.345,371.5,717.345,375.5,726.345,371.5" style="stroke:#181818;stroke-width:1.0;"/></g><!--link promotion_check to code_promotion_pro--><g id="link_promotion_check_code_promotion_pro"><path d="M805.5,389.625 C805.5,411.29 805.5,441.342 805.5,463.1195 " fill="none" id="promotion_check-to-code_promotion_pro" style="stroke:#181818;stroke-width:1.0;"/><polygon fill="#181818" points="805.5,469.1195,809.5,460.1195,805.5,464.1195,801.5,460.1195,805.5,469.1195" style="stroke:#181818;stroke-width:1.0;"/></g><!--link PO to promotion_check--><g id="link_PO_promotion_check"><path d="M919.201,371.5 C908.224,371.5 902.441,371.5 890.769,371.5 " fill="none" id="PO-to-promotion_check" style="stroke:#181818;stroke-width:1.0;"/><polygon fill="#181818" points="884.769,371.5,893.769,375.5,889.769,371.5,893.769,367.5,884.769,371.5" style="stroke:#181818;stroke-width:1.0;"/></g><!--SRC=[bLB1Ri8m3BtdAopkN3diW8IqQOTD0cdSaKcz4X7YAaateMaVmpVm2VsnEUd6IYdJk5Jky_FpS-omDQv2Zpkmnb7SLmJiuuQLGXtPm-YU0dhFrcB1VWGOe0xaVx8BpqMj8ypV7RNPnLnvqX5TQGb6ZoPcj3In2x-mmvOUKgGwkNLjR94oqlcDB5SxSgBneG0w0ZFN7Am99W25s1oYqGm5WMwEXIcvLOuey4fpGIjqQFV2FXTPKfHfd8de3OTsDlbRHT5KdrrJbUSTHrf5pibiRod1XIzvhSfIYHuUbizPCVTlwmsxLhld8eYDP1vzYRcc8l_AVeTEqzzcK6kgOk9bIxFJx-t6HEfg6mcp_lUsXNwv4E6iKPlcw42CrsZRIKxwUaDwUwCdYSuzZPuccRUTA9NE4CRJT5fm1rKTDagbU2pOxnfFKSO7Rw93iOcJBp9_uKngg7YWn5xhSqLWEdWYQW3C8rpSHX_8B7cWxQJrye-2wT0ng4iiCViRLJqWjn_Ous8-KFq5]--></g></svg>