<?xml version="1.0" encoding="us-ascii" standalone="no"?><svg xmlns="http://www.w3.org/2000/svg" xmlns:xlink="http://www.w3.org/1999/xlink" contentStyleType="text/css" height="1429px" preserveAspectRatio="none" style="width:1340px;height:1429px;background:#FFFFFF;" version="1.1" viewBox="0 0 1340 1429" width="1340px" zoomAndPan="magnify"><defs/><g><rect fill="#F1F1F1" height="36.2969" rx="12.5" ry="12.5" style="stroke:#181818;stroke-width:1.5;" width="163" x="624" y="695.5625"/><text fill="#000000" font-family="sans-serif" font-size="14" lengthAdjust="spacing" textLength="143" x="634" y="718.5576">Frontend developer</text><rect fill="#F1F1F1" height="36.2969" rx="12.5" ry="12.5" style="stroke:#181818;stroke-width:1.5;" width="95" x="837" y="329.6328"/><text fill="#000000" font-family="sans-serif" font-size="14" lengthAdjust="spacing" textLength="75" x="847" y="352.6279">Languages</text><rect fill="#F1F1F1" height="36.2969" rx="12.5" ry="12.5" style="stroke:#181818;stroke-width:1.5;" width="59" x="982" y="76.2969"/><text fill="#000000" font-family="sans-serif" font-size="14" lengthAdjust="spacing" textLength="39" x="992" y="99.292">HTML</text><rect fill="#F1F1F1" height="36.2969" rx="12.5" ry="12.5" style="stroke:#181818;stroke-width:1.5;" width="54" x="1091" y="20"/><text fill="#000000" font-family="sans-serif" font-size="14" lengthAdjust="spacing" textLength="34" x="1101" y="42.9951">DOM</text><path d="M1041,94.4453 L1051,94.4453 C1066,94.4453 1066,38.1484 1081,38.1484 L1091,38.1484 " fill="none" style="stroke:#181818;stroke-width:1.0;"/><rect fill="#F1F1F1" height="36.2969" rx="12.5" ry="12.5" style="stroke:#181818;stroke-width:1.5;" width="79" x="1091" y="76.2969"/><text fill="#000000" font-family="sans-serif" font-size="14" lengthAdjust="spacing" textLength="59" x="1101" y="99.292">Security</text><path d="M1041,94.4453 L1051,94.4453 C1066,94.4453 1066,94.4453 1081,94.4453 L1091,94.4453 " fill="none" style="stroke:#181818;stroke-width:1.0;"/><rect fill="#F1F1F1" height="36.2969" rx="12.5" ry="12.5" style="stroke:#181818;stroke-width:1.5;" width="131" x="1091" y="132.5938"/><text fill="#000000" font-family="sans-serif" font-size="14" lengthAdjust="spacing" textLength="111" x="1101" y="155.5889">Semantic HTML</text><path d="M1041,94.4453 L1051,94.4453 C1066,94.4453 1066,150.7422 1081,150.7422 L1091,150.7422 " fill="none" style="stroke:#181818;stroke-width:1.0;"/><path d="M932,347.7813 L942,347.7813 C957,347.7813 957,94.4453 972,94.4453 L982,94.4453 " fill="none" style="stroke:#181818;stroke-width:1.0;"/><rect fill="#F1F1F1" height="36.2969" rx="12.5" ry="12.5" style="stroke:#181818;stroke-width:1.5;" width="90" x="982" y="245.1875"/><text fill="#000000" font-family="sans-serif" font-size="14" lengthAdjust="spacing" textLength="70" x="992" y="268.1826">Javascript</text><rect fill="#F1F1F1" height="36.2969" rx="12.5" ry="12.5" style="stroke:#181818;stroke-width:1.5;" width="77" x="1122" y="188.8906"/><text fill="#000000" font-family="sans-serif" font-size="14" lengthAdjust="spacing" textLength="57" x="1132" y="211.8857">Storage</text><path d="M1072,263.3359 L1082,263.3359 C1097,263.3359 1097,207.0391 1112,207.0391 L1122,207.0391 " fill="none" style="stroke:#181818;stroke-width:1.0;"/><rect fill="#F1F1F1" height="36.2969" rx="12.5" ry="12.5" style="stroke:#181818;stroke-width:1.5;" width="141" x="1122" y="245.1875"/><text fill="#000000" font-family="sans-serif" font-size="14" lengthAdjust="spacing" textLength="121" x="1132" y="268.1826">Services workers</text><path d="M1072,263.3359 L1082,263.3359 C1097,263.3359 1097,263.3359 1112,263.3359 L1122,263.3359 " fill="none" style="stroke:#181818;stroke-width:1.0;"/><rect fill="#F1F1F1" height="36.2969" rx="12.5" ry="12.5" style="stroke:#181818;stroke-width:1.5;" width="206" x="1122" y="301.4844"/><text fill="#000000" font-family="sans-serif" font-size="14" lengthAdjust="spacing" textLength="186" x="1132" y="324.4795">New versions of Javascript</text><path d="M1072,263.3359 L1082,263.3359 C1097,263.3359 1097,319.6328 1112,319.6328 L1122,319.6328 " fill="none" style="stroke:#181818;stroke-width:1.0;"/><path d="M932,347.7813 L942,347.7813 C957,347.7813 957,263.3359 972,263.3359 L982,263.3359 " fill="none" style="stroke:#181818;stroke-width:1.0;"/><rect fill="#F1F1F1" height="36.2969" rx="12.5" ry="12.5" style="stroke:#181818;stroke-width:1.5;" width="48" x="982" y="470.375"/><text fill="#000000" font-family="sans-serif" font-size="14" lengthAdjust="spacing" textLength="28" x="992" y="493.3701">CSS</text><rect fill="#F1F1F1" height="36.2969" rx="12.5" ry="12.5" style="stroke:#181818;stroke-width:1.5;" width="101" x="1080" y="357.7813"/><text fill="#000000" font-family="sans-serif" font-size="14" lengthAdjust="spacing" textLength="81" x="1090" y="380.7764">Animations</text><path d="M1030,488.5234 L1040,488.5234 C1055,488.5234 1055,375.9297 1070,375.9297 L1080,375.9297 " fill="none" style="stroke:#181818;stroke-width:1.0;"/><rect fill="#F1F1F1" height="36.2969" rx="12.5" ry="12.5" style="stroke:#181818;stroke-width:1.5;" width="143" x="1080" y="414.0781"/><text fill="#000000" font-family="sans-serif" font-size="14" lengthAdjust="spacing" textLength="123" x="1090" y="437.0732">CSS Architecture</text><path d="M1030,488.5234 L1040,488.5234 C1055,488.5234 1055,432.2266 1070,432.2266 L1080,432.2266 " fill="none" style="stroke:#181818;stroke-width:1.0;"/><rect fill="#F1F1F1" height="36.2969" rx="12.5" ry="12.5" style="stroke:#181818;stroke-width:1.5;" width="109" x="1080" y="470.375"/><text fill="#000000" font-family="sans-serif" font-size="14" lengthAdjust="spacing" textLength="89" x="1090" y="493.3701">Orange Juice</text><path d="M1030,488.5234 L1040,488.5234 C1055,488.5234 1055,488.5234 1070,488.5234 L1080,488.5234 " fill="none" style="stroke:#181818;stroke-width:1.0;"/><rect fill="#F1F1F1" height="36.2969" rx="12.5" ry="12.5" style="stroke:#181818;stroke-width:1.5;" width="187" x="1080" y="526.6719"/><text fill="#000000" font-family="sans-serif" font-size="14" lengthAdjust="spacing" textLength="167" x="1090" y="549.667">Responsive web design</text><path d="M1030,488.5234 L1040,488.5234 C1055,488.5234 1055,544.8203 1070,544.8203 L1080,544.8203 " fill="none" style="stroke:#181818;stroke-width:1.0;"/><rect fill="#F1F1F1" height="36.2969" rx="12.5" ry="12.5" style="stroke:#181818;stroke-width:1.5;" width="137" x="1080" y="582.9688"/><text fill="#000000" font-family="sans-serif" font-size="14" lengthAdjust="spacing" textLength="117" x="1090" y="605.9639">CSS frameworks</text><path d="M1030,488.5234 L1040,488.5234 C1055,488.5234 1055,601.1172 1070,601.1172 L1080,601.1172 " fill="none" style="stroke:#181818;stroke-width:1.0;"/><path d="M932,347.7813 L942,347.7813 C957,347.7813 957,488.5234 972,488.5234 L982,488.5234 " fill="none" style="stroke:#181818;stroke-width:1.0;"/><rect fill="#F1F1F1" height="36.2969" rx="12.5" ry="12.5" style="stroke:#181818;stroke-width:1.5;" width="198" x="982" y="639.2656"/><text fill="#000000" font-family="sans-serif" font-size="14" lengthAdjust="spacing" textLength="178" x="992" y="662.2607">User stories and journeys</text><path d="M932,347.7813 L942,347.7813 C957,347.7813 957,657.4141 972,657.4141 L982,657.4141 " fill="none" style="stroke:#181818;stroke-width:1.0;"/><path d="M787,713.7109 L797,713.7109 C812,713.7109 812,347.7813 827,347.7813 L837,347.7813 " fill="none" style="stroke:#181818;stroke-width:1.0;"/><rect fill="#F1F1F1" height="36.2969" rx="12.5" ry="12.5" style="stroke:#181818;stroke-width:1.5;" width="130" x="837" y="695.5625"/><text fill="#000000" font-family="sans-serif" font-size="14" lengthAdjust="spacing" textLength="110" x="847" y="718.5576">Version control</text><rect fill="#F1F1F1" height="36.2969" rx="12.5" ry="12.5" style="stroke:#181818;stroke-width:1.5;" width="42" x="1017" y="695.5625"/><text fill="#000000" font-family="sans-serif" font-size="14" lengthAdjust="spacing" textLength="22" x="1027" y="718.5576">Git</text><rect fill="#F1F1F1" height="36.2969" rx="12.5" ry="12.5" style="stroke:#181818;stroke-width:1.5;" width="148" x="1109" y="695.5625"/><text fill="#000000" font-family="sans-serif" font-size="14" lengthAdjust="spacing" textLength="128" x="1119" y="718.5576">Branching models</text><path d="M1059,713.7109 L1069,713.7109 C1084,713.7109 1084,713.7109 1099,713.7109 L1109,713.7109 " fill="none" style="stroke:#181818;stroke-width:1.0;"/><path d="M967,713.7109 L977,713.7109 C992,713.7109 992,713.7109 1007,713.7109 L1017,713.7109 " fill="none" style="stroke:#181818;stroke-width:1.0;"/><path d="M787,713.7109 L797,713.7109 C812,713.7109 812,713.7109 827,713.7109 L837,713.7109 " fill="none" style="stroke:#181818;stroke-width:1.0;"/><rect fill="#FFA500" height="36.2969" rx="12.5" ry="12.5" style="stroke:#181818;stroke-width:1.5;" width="83" x="837" y="751.8594"/><text fill="#000000" font-family="sans-serif" font-size="14" lengthAdjust="spacing" textLength="63" x="847" y="774.8545">ING Core</text><path d="M787,713.7109 L797,713.7109 C812,713.7109 812,770.0078 827,770.0078 L837,770.0078 " fill="none" style="stroke:#181818;stroke-width:1.0;"/><rect fill="#F1F1F1" height="36.2969" rx="12.5" ry="12.5" style="stroke:#181818;stroke-width:1.5;" width="74" x="837" y="1061.4922"/><text fill="#000000" font-family="sans-serif" font-size="14" lengthAdjust="spacing" textLength="54" x="847" y="1084.4873">Testing</text><rect fill="#F1F1F1" height="36.2969" rx="12.5" ry="12.5" style="stroke:#181818;stroke-width:1.5;" width="49" x="961" y="808.1563"/><text fill="#000000" font-family="sans-serif" font-size="14" lengthAdjust="spacing" textLength="29" x="971" y="831.1514">Unit</text><rect fill="#F1F1F1" height="36.2969" rx="12.5" ry="12.5" style="stroke:#181818;stroke-width:1.5;" width="66" x="1060" y="751.8594"/><text fill="#000000" font-family="sans-serif" font-size="14" lengthAdjust="spacing" textLength="46" x="1070" y="774.8545">Mocha</text><path d="M1010,826.3047 L1020,826.3047 C1035,826.3047 1035,770.0078 1050,770.0078 L1060,770.0078 " fill="none" style="stroke:#181818;stroke-width:1.0;"/><rect fill="#F1F1F1" height="36.2969" rx="12.5" ry="12.5" style="stroke:#181818;stroke-width:1.5;" width="51" x="1060" y="808.1563"/><text fill="#000000" font-family="sans-serif" font-size="14" lengthAdjust="spacing" textLength="31" x="1070" y="831.1514">Chai</text><path d="M1010,826.3047 L1020,826.3047 C1035,826.3047 1035,826.3047 1050,826.3047 L1060,826.3047 " fill="none" style="stroke:#181818;stroke-width:1.0;"/><rect fill="#F1F1F1" height="36.2969" rx="12.5" ry="12.5" style="stroke:#181818;stroke-width:1.5;" width="76" x="1060" y="864.4531"/><text fill="#000000" font-family="sans-serif" font-size="14" lengthAdjust="spacing" textLength="56" x="1070" y="887.4482">Sinon.js</text><path d="M1010,826.3047 L1020,826.3047 C1035,826.3047 1035,882.6016 1050,882.6016 L1060,882.6016 " fill="none" style="stroke:#181818;stroke-width:1.0;"/><path d="M911,1079.6406 L921,1079.6406 C936,1079.6406 936,826.3047 951,826.3047 L961,826.3047 " fill="none" style="stroke:#181818;stroke-width:1.0;"/><rect fill="#F1F1F1" height="36.2969" rx="12.5" ry="12.5" style="stroke:#181818;stroke-width:1.5;" width="46" x="961" y="948.8984"/><text fill="#000000" font-family="sans-serif" font-size="14" lengthAdjust="spacing" textLength="26" x="971" y="971.8936">E2E</text><rect fill="#F1F1F1" height="36.2969" rx="12.5" ry="12.5" style="stroke:#181818;stroke-width:1.5;" width="87" x="1057" y="920.75"/><text fill="#000000" font-family="sans-serif" font-size="14" lengthAdjust="spacing" textLength="67" x="1067" y="943.7451">Pupeteer</text><path d="M1007,967.0469 L1017,967.0469 C1032,967.0469 1032,938.8984 1047,938.8984 L1057,938.8984 " fill="none" style="stroke:#181818;stroke-width:1.0;"/><rect fill="#F1F1F1" height="36.2969" rx="12.5" ry="12.5" style="stroke:#181818;stroke-width:1.5;" width="86" x="1057" y="977.0469"/><text fill="#000000" font-family="sans-serif" font-size="14" lengthAdjust="spacing" textLength="66" x="1067" y="1000.042">Selenium</text><path d="M1007,967.0469 L1017,967.0469 C1032,967.0469 1032,995.1953 1047,995.1953 L1057,995.1953 " fill="none" style="stroke:#181818;stroke-width:1.0;"/><path d="M911,1079.6406 L921,1079.6406 C936,1079.6406 936,967.0469 951,967.0469 L961,967.0469 " fill="none" style="stroke:#181818;stroke-width:1.0;"/><rect fill="#F1F1F1" height="36.2969" rx="12.5" ry="12.5" style="stroke:#181818;stroke-width:1.5;" width="113" x="961" y="1033.3438"/><text fill="#000000" font-family="sans-serif" font-size="14" lengthAdjust="spacing" textLength="93" x="971" y="1056.3389">Performance</text><rect fill="#F1F1F1" height="36.2969" rx="12.5" ry="12.5" style="stroke:#181818;stroke-width:1.5;" width="99" x="1124" y="1033.3438"/><text fill="#000000" font-family="sans-serif" font-size="14" lengthAdjust="spacing" textLength="79" x="1134" y="1056.3389">Lighthouse</text><path d="M1074,1051.4922 L1084,1051.4922 C1099,1051.4922 1099,1051.4922 1114,1051.4922 L1124,1051.4922 " fill="none" style="stroke:#181818;stroke-width:1.0;"/><path d="M911,1079.6406 L921,1079.6406 C936,1079.6406 936,1051.4922 951,1051.4922 L961,1051.4922 " fill="none" style="stroke:#181818;stroke-width:1.0;"/><rect fill="#F1F1F1" height="36.2969" rx="12.5" ry="12.5" style="stroke:#181818;stroke-width:1.5;" width="58" x="961" y="1174.0859"/><text fill="#000000" font-family="sans-serif" font-size="14" lengthAdjust="spacing" textLength="38" x="971" y="1197.0811">Tools</text><rect fill="#F1F1F1" height="36.2969" rx="12.5" ry="12.5" style="stroke:#181818;stroke-width:1.5;" width="142" x="1069" y="1089.6406"/><text fill="#000000" font-family="sans-serif" font-size="14" lengthAdjust="spacing" textLength="122" x="1079" y="1112.6357">Web-test-runner</text><path d="M1019,1192.2344 L1029,1192.2344 C1044,1192.2344 1044,1107.7891 1059,1107.7891 L1069,1107.7891 " fill="none" style="stroke:#181818;stroke-width:1.0;"/><rect fill="#F1F1F1" height="36.2969" rx="12.5" ry="12.5" style="stroke:#181818;stroke-width:1.5;" width="117" x="1069" y="1145.9375"/><text fill="#000000" font-family="sans-serif" font-size="14" lengthAdjust="spacing" textLength="97" x="1079" y="1168.9326">Browserstack</text><path d="M1019,1192.2344 L1029,1192.2344 C1044,1192.2344 1044,1164.0859 1059,1164.0859 L1069,1164.0859 " fill="none" style="stroke:#181818;stroke-width:1.0;"/><rect fill="#F1F1F1" height="36.2969" rx="12.5" ry="12.5" style="stroke:#181818;stroke-width:1.5;" width="103" x="1069" y="1202.2344"/><text fill="#000000" font-family="sans-serif" font-size="14" lengthAdjust="spacing" textLength="83" x="1079" y="1225.2295">Accesibility</text><path d="M1019,1192.2344 L1029,1192.2344 C1044,1192.2344 1044,1220.3828 1059,1220.3828 L1069,1220.3828 " fill="none" style="stroke:#181818;stroke-width:1.0;"/><rect fill="#F1F1F1" height="36.2969" rx="12.5" ry="12.5" style="stroke:#181818;stroke-width:1.5;" width="79" x="1069" y="1258.5313"/><text fill="#000000" font-family="sans-serif" font-size="14" lengthAdjust="spacing" textLength="59" x="1079" y="1281.5264">Security</text><path d="M1019,1192.2344 L1029,1192.2344 C1044,1192.2344 1044,1276.6797 1059,1276.6797 L1069,1276.6797 " fill="none" style="stroke:#181818;stroke-width:1.0;"/><path d="M911,1079.6406 L921,1079.6406 C936,1079.6406 936,1192.2344 951,1192.2344 L961,1192.2344 " fill="none" style="stroke:#181818;stroke-width:1.0;"/><rect fill="#FFB6C1" height="36.2969" rx="12.5" ry="12.5" style="stroke:#181818;stroke-width:1.5;" width="126" x="961" y="1342.9766"/><text fill="#000000" font-family="sans-serif" font-size="14" lengthAdjust="spacing" textLength="106" x="971" y="1365.9717">Methodologies</text><rect fill="#FFB6C1" height="36.2969" rx="12.5" ry="12.5" style="stroke:#181818;stroke-width:1.5;" width="51" x="1137" y="1314.8281"/><text fill="#000000" font-family="sans-serif" font-size="14" lengthAdjust="spacing" textLength="31" x="1147" y="1337.8232">TDD</text><path d="M1087,1361.125 L1097,1361.125 C1112,1361.125 1112,1332.9766 1127,1332.9766 L1137,1332.9766 " fill="none" style="stroke:#181818;stroke-width:1.0;"/><rect fill="#FFB6C1" height="36.2969" rx="12.5" ry="12.5" style="stroke:#181818;stroke-width:1.5;" width="52" x="1137" y="1371.125"/><text fill="#000000" font-family="sans-serif" font-size="14" lengthAdjust="spacing" textLength="32" x="1147" y="1394.1201">BDD</text><path d="M1087,1361.125 L1097,1361.125 C1112,1361.125 1112,1389.2734 1127,1389.2734 L1137,1389.2734 " fill="none" style="stroke:#181818;stroke-width:1.0;"/><path d="M911,1079.6406 L921,1079.6406 C936,1079.6406 936,1361.125 951,1361.125 L961,1361.125 " fill="none" style="stroke:#181818;stroke-width:1.0;"/><path d="M787,713.7109 L797,713.7109 C812,713.7109 812,1079.6406 827,1079.6406 L837,1079.6406 " fill="none" style="stroke:#181818;stroke-width:1.0;"/><rect fill="#F1F1F1" height="36.2969" rx="12.5" ry="12.5" style="stroke:#181818;stroke-width:1.5;" width="103" x="471" y="259.2617"/><text fill="#000000" font-family="sans-serif" font-size="14" lengthAdjust="spacing" textLength="83" x="481" y="282.2568">Accesibility</text><path d="M624,713.7109 L614,713.7109 C599,713.7109 599,277.4102 584,277.4102 L574,277.4102 " fill="none" style="stroke:#181818;stroke-width:1.0;"/><rect fill="#F1F1F1" height="36.2969" rx="12.5" ry="12.5" style="stroke:#181818;stroke-width:1.5;" width="105" x="469" y="315.5586"/><text fill="#000000" font-family="sans-serif" font-size="14" lengthAdjust="spacing" textLength="85" x="479" y="338.5537">Capabilities</text><rect fill="#F1F1F1" height="36.2969" rx="12.5" ry="12.5" style="stroke:#181818;stroke-width:1.5;" width="85" x="334" y="76.2969"/><text fill="#000000" font-family="sans-serif" font-size="14" lengthAdjust="spacing" textLength="65" x="344" y="99.292">Analytics</text><path d="M469,333.707 L459,333.707 C444,333.707 444,94.4453 429,94.4453 L419,94.4453 " fill="none" style="stroke:#181818;stroke-width:1.0;"/><rect fill="#FFB6C1" height="36.2969" rx="12.5" ry="12.5" style="stroke:#181818;stroke-width:1.5;" width="54" x="365" y="132.5938"/><text fill="#000000" font-family="sans-serif" font-size="14" lengthAdjust="spacing" textLength="34" x="375" y="155.5889">ITSM</text><path d="M469,333.707 L459,333.707 C444,333.707 444,150.7422 429,150.7422 L419,150.7422 " fill="none" style="stroke:#181818;stroke-width:1.0;"/><rect fill="#F1F1F1" height="36.2969" rx="12.5" ry="12.5" style="stroke:#181818;stroke-width:1.5;" width="118" x="301" y="188.8906"/><text fill="#000000" font-family="sans-serif" font-size="14" lengthAdjust="spacing" textLength="98" x="311" y="211.8857">Configuration</text><path d="M469,333.707 L459,333.707 C444,333.707 444,207.0391 429,207.0391 L419,207.0391 " fill="none" style="stroke:#181818;stroke-width:1.0;"/><rect fill="#F1F1F1" height="36.2969" rx="12.5" ry="12.5" style="stroke:#181818;stroke-width:1.5;" width="71" x="348" y="245.1875"/><text fill="#000000" font-family="sans-serif" font-size="14" lengthAdjust="spacing" textLength="51" x="358" y="268.1826">Rollout</text><path d="M469,333.707 L459,333.707 C444,333.707 444,263.3359 429,263.3359 L419,263.3359 " fill="none" style="stroke:#181818;stroke-width:1.0;"/><rect fill="#F1F1F1" height="36.2969" rx="12.5" ry="12.5" style="stroke:#181818;stroke-width:1.5;" width="69" x="350" y="301.4844"/><text fill="#000000" font-family="sans-serif" font-size="14" lengthAdjust="spacing" textLength="49" x="360" y="324.4795">Router</text><path d="M469,333.707 L459,333.707 C444,333.707 444,319.6328 429,319.6328 L419,319.6328 " fill="none" style="stroke:#181818;stroke-width:1.0;"/><rect fill="#F1F1F1" height="36.2969" rx="12.5" ry="12.5" style="stroke:#181818;stroke-width:1.5;" width="124" x="295" y="357.7813"/><text fill="#000000" font-family="sans-serif" font-size="14" lengthAdjust="spacing" textLength="104" x="305" y="380.7764">Best practices</text><rect fill="#F1F1F1" height="36.2969" rx="12.5" ry="12.5" style="stroke:#181818;stroke-width:1.5;" width="99" x="146" y="357.7813"/><text fill="#000000" font-family="sans-serif" font-size="14" lengthAdjust="spacing" textLength="79" x="156" y="380.7764">Clean code</text><path d="M295,375.9297 L285,375.9297 C270,375.9297 270,375.9297 255,375.9297 L245,375.9297 " fill="none" style="stroke:#181818;stroke-width:1.0;"/><path d="M469,333.707 L459,333.707 C444,333.707 444,375.9297 429,375.9297 L419,375.9297 " fill="none" style="stroke:#181818;stroke-width:1.0;"/><rect fill="#F1F1F1" height="36.2969" rx="12.5" ry="12.5" style="stroke:#181818;stroke-width:1.5;" width="111" x="308" y="442.2266"/><text fill="#000000" font-family="sans-serif" font-size="14" lengthAdjust="spacing" textLength="91" x="318" y="465.2217">Architecture</text><rect fill="#F1F1F1" height="36.2969" rx="12.5" ry="12.5" style="stroke:#181818;stroke-width:1.5;" width="200" x="58" y="414.0781"/><text fill="#000000" font-family="sans-serif" font-size="14" lengthAdjust="spacing" textLength="180" x="68" y="437.0732">Communication patterns</text><path d="M308,460.375 L298,460.375 C283,460.375 283,432.2266 268,432.2266 L258,432.2266 " fill="none" style="stroke:#181818;stroke-width:1.0;"/><rect fill="#F1F1F1" height="36.2969" rx="12.5" ry="12.5" style="stroke:#181818;stroke-width:1.5;" width="103" x="155" y="470.375"/><text fill="#000000" font-family="sans-serif" font-size="14" lengthAdjust="spacing" textLength="83" x="165" y="493.3701">Networking</text><path d="M308,460.375 L298,460.375 C283,460.375 283,488.5234 268,488.5234 L258,488.5234 " fill="none" style="stroke:#181818;stroke-width:1.0;"/><path d="M469,333.707 L459,333.707 C444,333.707 444,460.375 429,460.375 L419,460.375 " fill="none" style="stroke:#181818;stroke-width:1.0;"/><rect fill="#F1F1F1" height="36.2969" rx="12.5" ry="12.5" style="stroke:#181818;stroke-width:1.5;" width="119" x="300" y="498.5234"/><text fill="#000000" font-family="sans-serif" font-size="14" lengthAdjust="spacing" textLength="99" x="310" y="521.5186">Infrastructure</text><path d="M469,333.707 L459,333.707 C444,333.707 444,516.6719 429,516.6719 L419,516.6719 " fill="none" style="stroke:#181818;stroke-width:1.0;"/><rect fill="#F1F1F1" height="36.2969" rx="12.5" ry="12.5" style="stroke:#181818;stroke-width:1.5;" width="79" x="340" y="554.8203"/><text fill="#000000" font-family="sans-serif" font-size="14" lengthAdjust="spacing" textLength="59" x="350" y="577.8154">Security</text><path d="M469,333.707 L459,333.707 C444,333.707 444,572.9688 429,572.9688 L419,572.9688 " fill="none" style="stroke:#181818;stroke-width:1.0;"/><path d="M624,713.7109 L614,713.7109 C599,713.7109 599,333.707 584,333.707 L574,333.707 " fill="none" style="stroke:#181818;stroke-width:1.0;"/><rect fill="#F1F1F1" height="36.2969" rx="12.5" ry="12.5" style="stroke:#181818;stroke-width:1.5;" width="95" x="479" y="780.0078"/><text fill="#000000" font-family="sans-serif" font-size="14" lengthAdjust="spacing" textLength="75" x="489" y="803.0029">Build tools</text><rect fill="#F1F1F1" height="36.2969" rx="12.5" ry="12.5" style="stroke:#181818;stroke-width:1.5;" width="66" x="363" y="611.1172"/><text fill="#000000" font-family="sans-serif" font-size="14" lengthAdjust="spacing" textLength="46" x="373" y="634.1123">ESLint</text><path d="M479,798.1563 L469,798.1563 C454,798.1563 454,629.2656 439,629.2656 L429,629.2656 " fill="none" style="stroke:#181818;stroke-width:1.0;"/><rect fill="#F1F1F1" height="36.2969" rx="12.5" ry="12.5" style="stroke:#181818;stroke-width:1.5;" width="53" x="376" y="667.4141"/><text fill="#000000" font-family="sans-serif" font-size="14" lengthAdjust="spacing" textLength="33" x="386" y="690.4092">npm</text><path d="M479,798.1563 L469,798.1563 C454,798.1563 454,685.5625 439,685.5625 L429,685.5625 " fill="none" style="stroke:#181818;stroke-width:1.0;"/><rect fill="#F1F1F1" height="36.2969" rx="12.5" ry="12.5" style="stroke:#181818;stroke-width:1.5;" width="81" x="348" y="723.7109"/><text fill="#000000" font-family="sans-serif" font-size="14" lengthAdjust="spacing" textLength="61" x="358" y="746.7061">Retire.js</text><path d="M479,798.1563 L469,798.1563 C454,798.1563 454,741.8594 439,741.8594 L429,741.8594 " fill="none" style="stroke:#181818;stroke-width:1.0;"/><rect fill="#F1F1F1" height="36.2969" rx="12.5" ry="12.5" style="stroke:#181818;stroke-width:1.5;" width="78" x="351" y="780.0078"/><text fill="#000000" font-family="sans-serif" font-size="14" lengthAdjust="spacing" textLength="58" x="361" y="803.0029">prettier</text><path d="M479,798.1563 L469,798.1563 C454,798.1563 454,798.1563 439,798.1563 L429,798.1563 " fill="none" style="stroke:#181818;stroke-width:1.0;"/><rect fill="#F1F1F1" height="36.2969" rx="12.5" ry="12.5" style="stroke:#181818;stroke-width:1.5;" width="61" x="368" y="836.3047"/><text fill="#000000" font-family="sans-serif" font-size="14" lengthAdjust="spacing" textLength="41" x="378" y="859.2998">rollup</text><path d="M479,798.1563 L469,798.1563 C454,798.1563 454,854.4531 439,854.4531 L429,854.4531 " fill="none" style="stroke:#181818;stroke-width:1.0;"/><rect fill="#F1F1F1" height="36.2969" rx="12.5" ry="12.5" style="stroke:#181818;stroke-width:1.5;" width="96" x="333" y="892.6016"/><text fill="#000000" font-family="sans-serif" font-size="14" lengthAdjust="spacing" textLength="76" x="343" y="915.5967">Storybook</text><path d="M479,798.1563 L469,798.1563 C454,798.1563 454,910.75 439,910.75 L429,910.75 " fill="none" style="stroke:#181818;stroke-width:1.0;"/><rect fill="#FFA500" height="36.2969" rx="12.5" ry="12.5" style="stroke:#181818;stroke-width:1.5;" width="121" x="308" y="948.8984"/><text fill="#000000" font-family="sans-serif" font-size="14" lengthAdjust="spacing" textLength="101" x="318" y="971.8936">Azure DevOps</text><path d="M479,798.1563 L469,798.1563 C454,798.1563 454,967.0469 439,967.0469 L429,967.0469 " fill="none" style="stroke:#181818;stroke-width:1.0;"/><path d="M624,713.7109 L614,713.7109 C599,713.7109 599,798.1563 584,798.1563 L574,798.1563 " fill="none" style="stroke:#181818;stroke-width:1.0;"/><rect fill="#F1F1F1" height="36.2969" rx="12.5" ry="12.5" style="stroke:#181818;stroke-width:1.5;" width="146" x="428" y="1103.7148"/><text fill="#000000" font-family="sans-serif" font-size="14" lengthAdjust="spacing" textLength="126" x="438" y="1126.71">WebComponents</text><rect fill="#F1F1F1" height="36.2969" rx="12.5" ry="12.5" style="stroke:#181818;stroke-width:1.5;" width="138" x="240" y="1005.1953"/><text fill="#000000" font-family="sans-serif" font-size="14" lengthAdjust="spacing" textLength="118" x="250" y="1028.1904">HTML templates</text><path d="M428,1121.8633 L418,1121.8633 C403,1121.8633 403,1023.3438 388,1023.3438 L378,1023.3438 " fill="none" style="stroke:#181818;stroke-width:1.0;"/><rect fill="#F1F1F1" height="36.2969" rx="12.5" ry="12.5" style="stroke:#181818;stroke-width:1.5;" width="147" x="231" y="1061.4922"/><text fill="#000000" font-family="sans-serif" font-size="14" lengthAdjust="spacing" textLength="127" x="241" y="1084.4873">Custom elements</text><path d="M428,1121.8633 L418,1121.8633 C403,1121.8633 403,1079.6406 388,1079.6406 L378,1079.6406 " fill="none" style="stroke:#181818;stroke-width:1.0;"/><rect fill="#F1F1F1" height="36.2969" rx="12.5" ry="12.5" style="stroke:#181818;stroke-width:1.5;" width="113" x="265" y="1117.7891"/><text fill="#000000" font-family="sans-serif" font-size="14" lengthAdjust="spacing" textLength="93" x="275" y="1140.7842">Shadow DOM</text><path d="M428,1121.8633 L418,1121.8633 C403,1121.8633 403,1135.9375 388,1135.9375 L378,1135.9375 " fill="none" style="stroke:#181818;stroke-width:1.0;"/><rect fill="#F1F1F1" height="36.2969" rx="12.5" ry="12.5" style="stroke:#181818;stroke-width:1.5;" width="107" x="271" y="1174.0859"/><text fill="#000000" font-family="sans-serif" font-size="14" lengthAdjust="spacing" textLength="87" x="281" y="1197.0811">Frameworks</text><rect fill="#F1F1F1" height="36.2969" rx="12.5" ry="12.5" style="stroke:#181818;stroke-width:1.5;" width="39" x="182" y="1174.0859"/><text fill="#000000" font-family="sans-serif" font-size="14" lengthAdjust="spacing" textLength="19" x="192" y="1197.0811">Lit</text><rect fill="#FFA500" height="36.2969" rx="12.5" ry="12.5" style="stroke:#181818;stroke-width:1.5;" width="122" x="10" y="1145.9375"/><text fill="#000000" font-family="sans-serif" font-size="14" lengthAdjust="spacing" textLength="102" x="20" y="1168.9326">Lion elements</text><path d="M182,1192.2344 L172,1192.2344 C157,1192.2344 157,1164.0859 142,1164.0859 L132,1164.0859 " fill="none" style="stroke:#181818;stroke-width:1.0;"/><rect fill="#FFA500" height="36.2969" rx="12.5" ry="12.5" style="stroke:#181818;stroke-width:1.5;" width="79" x="53" y="1202.2344"/><text fill="#000000" font-family="sans-serif" font-size="14" lengthAdjust="spacing" textLength="59" x="63" y="1225.2295">ING web</text><path d="M182,1192.2344 L172,1192.2344 C157,1192.2344 157,1220.3828 142,1220.3828 L132,1220.3828 " fill="none" style="stroke:#181818;stroke-width:1.0;"/><path d="M271,1192.2344 L261,1192.2344 C246,1192.2344 246,1192.2344 231,1192.2344 L221,1192.2344 " fill="none" style="stroke:#181818;stroke-width:1.0;"/><path d="M428,1121.8633 L418,1121.8633 C403,1121.8633 403,1192.2344 388,1192.2344 L378,1192.2344 " fill="none" style="stroke:#181818;stroke-width:1.0;"/><path d="M624,713.7109 L614,713.7109 C599,713.7109 599,1121.8633 584,1121.8633 L574,1121.8633 " fill="none" style="stroke:#181818;stroke-width:1.0;"/><rect fill="#F1F1F1" height="36.2969" rx="12.5" ry="12.5" style="stroke:#181818;stroke-width:1.5;" width="177" x="397" y="1258.5313"/><text fill="#000000" font-family="sans-serif" font-size="14" lengthAdjust="spacing" textLength="157" x="407" y="1281.5264">Static site generators</text><rect fill="#F1F1F1" height="36.2969" rx="12.5" ry="12.5" style="stroke:#181818;stroke-width:1.5;" width="59" x="288" y="1258.5313"/><text fill="#000000" font-family="sans-serif" font-size="14" lengthAdjust="spacing" textLength="39" x="298" y="1281.5264">Astro</text><path d="M397,1276.6797 L387,1276.6797 C372,1276.6797 372,1276.6797 357,1276.6797 L347,1276.6797 " fill="none" style="stroke:#181818;stroke-width:1.0;"/><path d="M624,713.7109 L614,713.7109 C599,713.7109 599,1276.6797 584,1276.6797 L574,1276.6797 " fill="none" style="stroke:#181818;stroke-width:1.0;"/><rect fill="#F1F1F1" height="36.2969" rx="12.5" ry="12.5" style="stroke:#181818;stroke-width:1.5;" width="175" x="399" y="1314.8281"/><text fill="#000000" font-family="sans-serif" font-size="14" lengthAdjust="spacing" textLength="155" x="409" y="1337.8232">Frontend frameworks</text><rect fill="#FFA500" height="36.2969" rx="12.5" ry="12.5" style="stroke:#181818;stroke-width:1.5;" width="83" x="266" y="1314.8281"/><text fill="#000000" font-family="sans-serif" font-size="14" lengthAdjust="spacing" textLength="63" x="276" y="1337.8232">WebSDK</text><path d="M399,1332.9766 L389,1332.9766 C374,1332.9766 374,1332.9766 359,1332.9766 L349,1332.9766 " fill="none" style="stroke:#181818;stroke-width:1.0;"/><path d="M624,713.7109 L614,713.7109 C599,713.7109 599,1332.9766 584,1332.9766 L574,1332.9766 " fill="none" style="stroke:#181818;stroke-width:1.0;"/><!--SRC=[PLHBJoCn3BxFhx341LGLxIAqMd62FdXj2nLJs0FYaCwuRMWc7cMSLjrVlquo0sNt5Zj-VBO_-x9XvRZIjgnKdVNWsf5bj2MKk4L3DRgiruE9iYklLjY8q8FR-NGI7ZqOFKxJ8yV2EytxJggKPLryMCAzsggcSBhcreB9IRpEt6rrWGtio6tGDKdxW3lOYgJ9Da3BVqB0CC-JtPNLbU9WbMJvW2jNh3LZmTwrEHwTb81mxoLHqZnXKukJtYBiS27rDdfbFqCidQem04erFpVee17KMd0gwSyxUMTn7txX9S64Gdhdo4I76zsMEf3CWiQkeA8IJN1uFKfmtk3kuGQ6547271iMivJETkvJAjQgXRLMkksOjcHFtnEqyTauQMU-HiOuiTXLWrRxAjhCq2t9oLIwwYTwjUOr-IRAC2SoRVz-uwBF0gNllBLTi86ZdNH0o59ishONCZ6zqEPWwfySU3sA2MRQRjvWYfAf94ChdHZqzNi-6lsl78Yot_-QHUIXgbMKGgH-CB3Ax8LgKVeIuMwUJwF9aEnIhxoB98cQ9pA6FBTlpr9bU0waQgYTAZYmCQZ4sQ0AWoqnfJiaLZAWgl9M5p4wr8ebccsT7v03Wy9GWtXdXLGDE__X_jcpaDvhKmB7IOI_SJxHDe6qTPN08ck7OV11gXsoD2A15zuPNwUWGjFzWcYJUj9nxUgFP8KHRX_hu1y6BU1b1z1o2XZM5HYhsYXk-plqGleAX4lLXrc-LYNjul87yVfpKsBL4nr17wQUXDuSnZZy33iW6vX5v2gSZKPQ32iKzYaffHsqD8wocAwzKCilUL-Fg8qdTUMZNzcbs7HtBPiPEKZFKbrxKU3xwTcti_FJymMo-d7yR3UMTc7ELQqD0kiAJxBZcza46jdp0g7KabylV9ZoIHPk4Jnv6-mkucKwdazF81ztIXZRhHQWeU3i_cMQZE2MEA-9e_6Fy_v0Spn-SbfUfja8byeR5bUXct3c0fxdr_sVMNTyBm1jDYH9uFRob_y5]--></g></svg>