<?xml version="1.0" encoding="us-ascii" standalone="no"?><svg xmlns="http://www.w3.org/2000/svg" xmlns:xlink="http://www.w3.org/1999/xlink" contentStyleType="text/css" height="719px" preserveAspectRatio="none" style="width:1241px;height:719px;background:#FFFFFF;" version="1.1" viewBox="0 0 1241 719" width="1241px" zoomAndPan="magnify"><defs/><g><!--cluster build--><g id="cluster_build"><rect fill="none" height="279" rx="2.5" ry="2.5" style="stroke:#181818;stroke-width:1.0;" width="242" x="84.5" y="106.5"/><text fill="#000000" font-family="sans-serif" font-size="14" font-weight="bold" lengthAdjust="spacing" textLength="105" x="153" y="121.4951">Development</text></g><!--cluster promote_to_test--><g id="cluster_promote_to_test"><rect fill="none" height="183" rx="2.5" ry="2.5" style="stroke:#181818;stroke-width:1.0;" width="238" x="350.5" y="202.5"/><text fill="#000000" font-family="sans-serif" font-size="14" font-weight="bold" lengthAdjust="spacing" textLength="37" x="451" y="217.4951">Test</text></g><!--cluster promote_to_acceptance--><g id="cluster_promote_to_acceptance"><rect fill="none" height="203" rx="2.5" ry="2.5" style="stroke:#181818;stroke-width:1.0;" width="238" x="612.5" y="298.5"/><text fill="#000000" font-family="sans-serif" font-size="14" font-weight="bold" lengthAdjust="spacing" textLength="94" x="684.5" y="313.4951">Acceptance</text></g><!--cluster promote_to_pro--><g id="cluster_promote_to_pro"><rect fill="none" height="299" rx="2.5" ry="2.5" style="stroke:#181818;stroke-width:1.0;" width="238" x="874.5" y="414.5"/><text fill="#000000" font-family="sans-serif" font-size="14" font-weight="bold" lengthAdjust="spacing" textLength="89" x="949" y="429.4951">Production</text></g><!--entity static_code_analysis--><g id="elem_static_code_analysis"><rect fill="#F1F1F1" height="36.2969" rx="2.5" ry="2.5" style="stroke:#181818;stroke-width:0.5;" width="210" x="100.5" y="237.5"/><text fill="#000000" font-family="sans-serif" font-size="14" lengthAdjust="spacing" textLength="190" x="110.5" y="260.4951">An&#225;lisis est&#225;tico de c&#243;digo</text></g><!--entity schema_update--><g id="elem_schema_update"><rect fill="#F1F1F1" height="36.2969" rx="2.5" ry="2.5" style="stroke:#181818;stroke-width:0.5;" width="159" x="126" y="333.5"/><text fill="#000000" font-family="sans-serif" font-size="14" lengthAdjust="spacing" textLength="139" x="136" y="356.4951">Actualizar esquema</text></g><!--entity unit_test--><g id="elem_unit_test"><rect fill="#F1F1F1" height="36.2969" rx="2.5" ry="2.5" style="stroke:#181818;stroke-width:0.5;" width="118" x="103.5" y="141.5"/><text fill="#000000" font-family="sans-serif" font-size="14" lengthAdjust="spacing" textLength="98" x="113.5" y="164.4951">Tets unitarios</text></g><!--entity schema_promotion_test--><g id="elem_schema_promotion_test"><rect fill="#F1F1F1" height="36.2969" rx="2.5" ry="2.5" style="stroke:#181818;stroke-width:0.5;" width="159" x="378" y="237.5"/><text fill="#000000" font-family="sans-serif" font-size="14" lengthAdjust="spacing" textLength="139" x="388" y="260.4951">Actualizar esquema</text></g><!--entity update_master_data_test--><g id="elem_update_master_data_test"><rect fill="#F1F1F1" height="36.2969" rx="2.5" ry="2.5" style="stroke:#181818;stroke-width:0.5;" width="206" x="366.5" y="333.5"/><text fill="#000000" font-family="sans-serif" font-size="14" lengthAdjust="spacing" textLength="186" x="376.5" y="356.4951">Actualizar datos maestros</text></g><!--entity schema_promotion_acc--><g id="elem_schema_promotion_acc"><rect fill="#F1F1F1" height="36.2969" rx="2.5" ry="2.5" style="stroke:#181818;stroke-width:0.5;" width="159" x="640" y="333.5"/><text fill="#000000" font-family="sans-serif" font-size="14" lengthAdjust="spacing" textLength="139" x="650" y="356.4951">Actualizar esquema</text></g><!--entity update_master_data_acc--><g id="elem_update_master_data_acc"><rect fill="#F1F1F1" height="36.2969" rx="2.5" ry="2.5" style="stroke:#181818;stroke-width:0.5;" width="206" x="628.5" y="449.5"/><text fill="#000000" font-family="sans-serif" font-size="14" lengthAdjust="spacing" textLength="186" x="638.5" y="472.4951">Actualizar datos maestros</text></g><!--entity promotion_check--><g id="elem_promotion_check"><rect fill="#F1F1F1" height="36.2969" rx="2.5" ry="2.5" style="stroke:#181818;stroke-width:0.5;" width="158" x="914.5" y="449.5"/><text fill="#000000" font-family="sans-serif" font-size="14" lengthAdjust="spacing" textLength="138" x="924.5" y="472.4951">Aprobaci&#243;n manual</text></g><!--entity schema_promotion_pro--><g id="elem_schema_promotion_pro"><rect fill="#F1F1F1" height="36.2969" rx="2.5" ry="2.5" style="stroke:#181818;stroke-width:0.5;" width="159" x="914" y="565.5"/><text fill="#000000" font-family="sans-serif" font-size="14" lengthAdjust="spacing" textLength="139" x="924" y="588.4951">Actualizar esquema</text></g><!--entity update_master_data_pro--><g id="elem_update_master_data_pro"><rect fill="#F1F1F1" height="36.2969" rx="2.5" ry="2.5" style="stroke:#181818;stroke-width:0.5;" width="206" x="890.5" y="661.5"/><text fill="#000000" font-family="sans-serif" font-size="14" lengthAdjust="spacing" textLength="186" x="900.5" y="684.4951">Actualizar datos maestros</text></g><!--entity user--><g id="elem_user"><ellipse cx="58.5" cy="14" fill="#F1F1F1" rx="8" ry="8" style="stroke:#181818;stroke-width:0.5;"/><path d="M58.5,22 L58.5,49 M45.5,30 L71.5,30 M58.5,49 L45.5,64 M58.5,49 L71.5,64 " fill="none" style="stroke:#181818;stroke-width:0.5;"/><text fill="#000000" font-family="sans-serif" font-size="14" lengthAdjust="spacing" textLength="96" x="10.5" y="78.4951">Desarrollador</text></g><!--entity PO--><g id="elem_PO"><ellipse cx="1181.5" cy="438" fill="#F1F1F1" rx="8" ry="8" style="stroke:#181818;stroke-width:0.5;"/><path d="M1181.5,446 L1181.5,473 M1168.5,454 L1194.5,454 M1181.5,473 L1168.5,488 M1181.5,473 L1194.5,488 " fill="none" style="stroke:#181818;stroke-width:0.5;"/><text fill="#000000" font-family="sans-serif" font-size="14" lengthAdjust="spacing" textLength="106" x="1128.5" y="502.4951">Product Owner</text></g><!--entity git--><g id="elem_git"><rect fill="#F1F1F1" height="36.2969" rx="2.5" ry="2.5" style="stroke:#181818;stroke-width:0.5;" width="42" x="141.5" y="25.5"/><text fill="#000000" font-family="sans-serif" font-size="14" lengthAdjust="spacing" textLength="22" x="151.5" y="48.4951">Git</text></g><!--entity sonar--><g id="elem_sonar"><rect fill="#F1F1F1" height="36.2969" rx="2.5" ry="2.5" style="stroke:#181818;stroke-width:0.5;" width="61" x="7" y="141.5"/><text fill="#000000" font-family="sans-serif" font-size="14" lengthAdjust="spacing" textLength="41" x="17" y="164.4951">Sonar</text></g><!--link user to git--><g id="link_user_git"><path d="M106.5425,43.5 C118.784,43.5 125.319,43.5 135.414,43.5 " fill="none" id="user-to-git" style="stroke:#181818;stroke-width:1.0;"/><polygon fill="#181818" points="141.414,43.5,132.414,39.5,136.414,43.5,132.414,47.5,141.414,43.5" style="stroke:#181818;stroke-width:1.0;"/><text fill="#000000" font-family="sans-serif" font-size="13" lengthAdjust="spacing" textLength="31" x="108.478" y="56.5669">push</text></g><!--link git to unit_test--><g id="link_git_unit_test"><path d="M162.5,61.625 C162.5,83.29 162.5,113.342 162.5,135.119 " fill="none" id="git-to-unit_test" style="stroke:#181818;stroke-width:1.0;"/><polygon fill="#181818" points="162.5,141.119,166.5,132.119,162.5,136.119,158.5,132.119,162.5,141.119" style="stroke:#181818;stroke-width:1.0;"/></g><!--link unit_test to static_code_analysis--><g id="link_unit_test_static_code_analysis"><path d="M162.5,177.557 C162.5,194.612 162.5,214.063 162.5,231.198 " fill="none" id="unit_test-to-static_code_analysis" style="stroke:#181818;stroke-width:1.0;"/><polygon fill="#181818" points="162.5,237.198,166.5,228.198,162.5,232.198,158.5,228.198,162.5,237.198" style="stroke:#181818;stroke-width:1.0;"/></g><!--reverse link sonar to unit_test--><g id="link_sonar_unit_test"><path d="M74.0784,153.5 C84.7755,153.5 91.1779,153.5 103.406,153.5 " fill="none" id="sonar-backto-unit_test" style="stroke:#181818;stroke-width:1.0;"/><polygon fill="#181818" points="68.0784,153.5,77.0784,157.5,73.0784,153.5,77.0784,149.5,68.0784,153.5" style="stroke:#181818;stroke-width:1.0;"/></g><!--link sonar to unit_test--><g id="link_sonar_unit_test"><path d="M68.0784,165.5 C78.7755,165.5 85.1779,165.5 97.406,165.5 " fill="none" id="sonar-to-unit_test" style="stroke:#181818;stroke-width:1.0;"/><polygon fill="#181818" points="103.406,165.5,94.406,161.5,98.406,165.5,94.406,169.5,103.406,165.5" style="stroke:#181818;stroke-width:1.0;"/></g><!--reverse link sonar to static_code_analysis--><g id="link_sonar_static_code_analysis"><path d="M47.6667,183.713 C47.6667,210.011 47.6667,249.5 47.6667,249.5 C47.6667,249.5 71.2709,249.5 100.2229,249.5 " fill="none" id="sonar-backto-static_code_analysis" style="stroke:#181818;stroke-width:1.0;"/><polygon fill="#181818" points="47.6667,177.713,43.6667,186.713,47.6667,182.713,51.6667,186.713,47.6667,177.713" style="stroke:#181818;stroke-width:1.0;"/></g><!--link sonar to static_code_analysis--><g id="link_sonar_static_code_analysis"><path d="M27.3333,177.736 C27.3333,207.074 27.3333,261.5 27.3333,261.5 C27.3333,261.5 55.7407,261.5 94.3146,261.5 " fill="none" id="sonar-to-static_code_analysis" style="stroke:#181818;stroke-width:1.0;"/><polygon fill="#181818" points="100.3146,261.5,91.3146,257.5,95.3146,261.5,91.3146,265.5,100.3146,261.5" style="stroke:#181818;stroke-width:1.0;"/></g><!--link static_code_analysis to schema_update--><g id="link_static_code_analysis_schema_update"><path d="M205.5,273.557 C205.5,290.612 205.5,310.063 205.5,327.198 " fill="none" id="static_code_analysis-to-schema_update" style="stroke:#181818;stroke-width:1.0;"/><polygon fill="#181818" points="205.5,333.198,209.5,324.198,205.5,328.198,201.5,324.198,205.5,333.198" style="stroke:#181818;stroke-width:1.0;"/></g><!--link static_code_analysis to schema_promotion_test--><g id="link_static_code_analysis_schema_promotion_test"><path d="M310.546,255.5 C333.099,255.5 350.574,255.5 371.97,255.5 " fill="none" id="static_code_analysis-to-schema_promotion_test" style="stroke:#181818;stroke-width:1.0;"/><polygon fill="#181818" points="377.97,255.5,368.97,251.5,372.97,255.5,368.97,259.5,377.97,255.5" style="stroke:#181818;stroke-width:1.0;"/></g><!--link schema_promotion_test to update_master_data_test--><g id="link_schema_promotion_test_update_master_data_test"><path d="M457.5,273.557 C457.5,290.612 457.5,310.063 457.5,327.198 " fill="none" id="schema_promotion_test-to-update_master_data_test" style="stroke:#181818;stroke-width:1.0;"/><polygon fill="#181818" points="457.5,333.198,461.5,324.198,457.5,328.198,453.5,324.198,457.5,333.198" style="stroke:#181818;stroke-width:1.0;"/></g><!--link update_master_data_test to schema_promotion_acc--><g id="link_update_master_data_test_schema_promotion_acc"><path d="M572.628,351.5 C595.09,351.5 612.524,351.5 633.907,351.5 " fill="none" id="update_master_data_test-to-schema_promotion_acc" style="stroke:#181818;stroke-width:1.0;"/><polygon fill="#181818" points="639.907,351.5,630.907,347.5,634.907,351.5,630.907,355.5,639.907,351.5" style="stroke:#181818;stroke-width:1.0;"/></g><!--link schema_promotion_acc to update_master_data_acc--><g id="link_schema_promotion_acc_update_master_data_acc"><path d="M719.5,369.625 C719.5,391.29 719.5,421.342 719.5,443.119 " fill="none" id="schema_promotion_acc-to-update_master_data_acc" style="stroke:#181818;stroke-width:1.0;"/><polygon fill="#181818" points="719.5,449.119,723.5,440.119,719.5,444.119,715.5,440.119,719.5,449.119" style="stroke:#181818;stroke-width:1.0;"/></g><!--link update_master_data_acc to promotion_check--><g id="link_update_master_data_acc_promotion_check"><path d="M834.673,467.5 C861.165,467.5 883.248,467.5 908.314,467.5 " fill="none" id="update_master_data_acc-to-promotion_check" style="stroke:#181818;stroke-width:1.0;"/><polygon fill="#181818" points="914.314,467.5,905.314,463.5,909.314,467.5,905.314,471.5,914.314,467.5" style="stroke:#181818;stroke-width:1.0;"/></g><!--link promotion_check to schema_promotion_pro--><g id="link_promotion_check_schema_promotion_pro"><path d="M993.5,485.625 C993.5,507.29 993.5,537.342 993.5,559.119 " fill="none" id="promotion_check-to-schema_promotion_pro" style="stroke:#181818;stroke-width:1.0;"/><polygon fill="#181818" points="993.5,565.119,997.5,556.119,993.5,560.119,989.5,556.119,993.5,565.119" style="stroke:#181818;stroke-width:1.0;"/></g><!--link PO to promotion_check--><g id="link_PO_promotion_check"><path d="M1128.38,467.5 C1111.12,467.5 1097.57,467.5 1078.82,467.5 " fill="none" id="PO-to-promotion_check" style="stroke:#181818;stroke-width:1.0;"/><polygon fill="#181818" points="1072.82,467.5,1081.82,471.5,1077.82,467.5,1081.82,463.5,1072.82,467.5" style="stroke:#181818;stroke-width:1.0;"/></g><!--link schema_promotion_pro to update_master_data_pro--><g id="link_schema_promotion_pro_update_master_data_pro"><path d="M993.5,601.557 C993.5,618.612 993.5,638.0631 993.5,655.1977 " fill="none" id="schema_promotion_pro-to-update_master_data_pro" style="stroke:#181818;stroke-width:1.0;"/><polygon fill="#181818" points="993.5,661.1977,997.5,652.1977,993.5,656.1977,989.5,652.1977,993.5,661.1977" style="stroke:#181818;stroke-width:1.0;"/></g><!--SRC=[fLF1JYCn3BtdAwpU-mDxG49QYMChmNraCbORDHCFYMTNBE9Z-8P-GdyC9xF0j2GSu18vpy_Fpv6J3YwC6740xmB9uqZ0KVPi35hX2AlVb316zXvxZYl015EY-9RTHkudAx3v6sZERZV6HBA2OUS9LZTE2hnpieHlEU3CJpbQbjnFplSvewt_aETneA0QJmPW8N0TJY_U9PU0afnUn5c6di2UZhtRyQmig71dkQSE0_f7PL-8M9dGktyOLULXeW7dGhlNi9l67eNEA-v8z0624uoEq_mSUkj4NPZdvHXZv865Ek6IB0FTQV1vaYzDp3AEmzoYLQbEES60oebllehzRi0a53kDyMkNQ2sD2bigNg_Vhzzsh8e_D9mLMdurB4R_hw0s_6nKEVTetUaOj5NGtgNHXqDrR0_V6qwZ7mwN5NIu_9rWVPL_2Fo2SKfxOqo-h1NyMAxtgE3LtLvGVEQKdrLEMCSpiLfvewZQgLwVsMTVnpI8LutjLduDdr-YiSuDlDeahvEfeQqEkQ0EP_tBFJ8NmF95pXTdkwdLrwWjPvfw1G00]--></g></svg>