<?xml version="1.0" encoding="us-ascii" standalone="no"?><svg xmlns="http://www.w3.org/2000/svg" xmlns:xlink="http://www.w3.org/1999/xlink" contentStyleType="text/css" height="534px" preserveAspectRatio="none" style="width:506px;height:534px;background:#282828;" version="1.1" viewBox="0 0 506 534" width="506px" zoomAndPan="magnify"><defs/><g><rect fill="#282828" height="534" style="stroke:none;stroke-width:1.0;" width="506" x="0" y="0"/><!--entity gp--><g id="elem_gp"><rect fill="#282828" height="36.2969" rx="2.5" ry="2.5" style="stroke:#FFB000;stroke-width:1.0;" width="78" x="170" y="12"/><text fill="#FFB000" font-family="Verdana" font-size="14" lengthAdjust="spacing" textLength="58" x="180" y="34.9951">git push</text></g><!--entity ut--><g id="elem_ut"><rect fill="#282828" height="36.2969" rx="2.5" ry="2.5" style="stroke:#FFB000;stroke-width:1.0;" width="82" x="12" y="108"/><text fill="#FFB000" font-family="Verdana" font-size="14" lengthAdjust="spacing" textLength="62" x="22" y="130.9951">unit test</text></g><!--entity sca--><g id="elem_sca"><rect fill="#282828" height="36.2969" rx="2.5" ry="2.5" style="stroke:#FFB000;stroke-width:1.0;" width="159" x="129.5" y="108"/><text fill="#FFB000" font-family="Verdana" font-size="14" lengthAdjust="spacing" textLength="139" x="139.5" y="130.9951">static code analysis</text></g><!--entity sc--><g id="elem_sc"><rect fill="#282828" height="36.2969" rx="2.5" ry="2.5" style="stroke:#FFB000;stroke-width:1.0;" width="176" x="324" y="108"/><text fill="#FFB000" font-family="Verdana" font-size="14" lengthAdjust="spacing" textLength="156" x="334" y="130.9951">schema compatibility</text></g><!--entity da--><g id="elem_da"><rect fill="#282828" height="36.2969" rx="2.5" ry="2.5" style="stroke:#FFB000;stroke-width:1.0;" width="169" x="124.5" y="204"/><text fill="#FFB000" font-family="Verdana" font-size="14" lengthAdjust="spacing" textLength="149" x="134.5" y="226.9951">deploy to aceptance</text></g><!--entity e2e--><g id="elem_e2e"><rect fill="#282828" height="36.2969" rx="2.5" ry="2.5" style="stroke:#FFB000;stroke-width:1.0;" width="87" x="165.5" y="300"/><text fill="#FFB000" font-family="Verdana" font-size="14" lengthAdjust="spacing" textLength="67" x="175.5" y="322.9951">E2E tests</text></g><!--entity poa--><g id="elem_poa"><rect fill="#282828" height="36.2969" rx="2.5" ry="2.5" style="stroke:#FFB000;stroke-width:1.0;" width="107" x="155.5" y="396"/><text fill="#FFB000" font-family="Verdana" font-size="14" lengthAdjust="spacing" textLength="87" x="165.5" y="418.9951">PO approval</text></g><!--entity dp--><g id="elem_dp"><rect fill="#282828" height="36.2969" rx="2.5" ry="2.5" style="stroke:#FFB000;stroke-width:1.0;" width="172" x="123" y="492"/><text fill="#FFB000" font-family="Verdana" font-size="14" lengthAdjust="spacing" textLength="152" x="133" y="514.9951">deploy to production</text></g><!--link gp to ut--><g id="link_gp_ut"><path d="M180.75,48.023 C152.565,65.006 114.6459,87.8544 86.4426,104.8484 " fill="none" id="gp-to-ut" style="stroke:#FFB000;stroke-width:1.0;"/><polygon fill="#FFB000" points="81.3034,107.945,91.0766,106.7262,85.586,105.3645,86.9477,99.874,81.3034,107.945" style="stroke:#FFB000;stroke-width:1.0;"/></g><!--link gp to sca--><g id="link_gp_sca"><path d="M209,48.241 C209,65.202 209,84.945 209,101.868 " fill="none" id="gp-to-sca" style="stroke:#FFB000;stroke-width:1.0;"/><polygon fill="#FFB000" points="209,107.868,213,98.868,209,102.868,205,98.868,209,107.868" style="stroke:#FFB000;stroke-width:1.0;"/></g><!--link gp to sc--><g id="link_gp_sc"><path d="M245.762,48.023 C282.438,65.006 333.0244,88.4299 369.7244,105.4239 " fill="none" id="gp-to-sc" style="stroke:#FFB000;stroke-width:1.0;"/><polygon fill="#FFB000" points="375.169,107.945,368.6828,100.5335,370.6318,105.8441,365.3213,107.793,375.169,107.945" style="stroke:#FFB000;stroke-width:1.0;"/></g><!--link ut to da--><g id="link_ut_da"><path d="M81.2504,144.023 C109.435,161.006 147.3538,183.8544 175.5578,200.8484 " fill="none" id="ut-to-da" style="stroke:#FFB000;stroke-width:1.0;"/><polygon fill="#FFB000" points="180.697,203.945,175.0526,195.874,176.4143,201.3645,170.9238,202.7263,180.697,203.945" style="stroke:#FFB000;stroke-width:1.0;"/></g><!--link sca to da--><g id="link_sca_da"><path d="M209,144.241 C209,161.202 209,180.945 209,197.868 " fill="none" id="sca-to-da" style="stroke:#FFB000;stroke-width:1.0;"/><polygon fill="#FFB000" points="209,203.868,213,194.868,209,198.868,205,194.868,209,203.868" style="stroke:#FFB000;stroke-width:1.0;"/></g><!--link sc to da--><g id="link_sc_da"><path d="M375.238,144.023 C338.562,161.006 287.9756,184.4299 251.2756,201.4239 " fill="none" id="sc-to-da" style="stroke:#FFB000;stroke-width:1.0;"/><polygon fill="#FFB000" points="245.831,203.945,255.6787,203.793,250.3682,201.8441,252.3172,196.5335,245.831,203.945" style="stroke:#FFB000;stroke-width:1.0;"/></g><!--link da to e2e--><g id="link_da_e2e"><path d="M209,240.241 C209,257.202 209,276.945 209,293.868 " fill="none" id="da-to-e2e" style="stroke:#FFB000;stroke-width:1.0;"/><polygon fill="#FFB000" points="209,299.868,213,290.868,209,294.868,205,290.868,209,299.868" style="stroke:#FFB000;stroke-width:1.0;"/></g><!--link e2e to poa--><g id="link_e2e_poa"><path d="M209,336.241 C209,353.202 209,372.945 209,389.868 " fill="none" id="e2e-to-poa" style="stroke:#FFB000;stroke-width:1.0;"/><polygon fill="#FFB000" points="209,395.868,213,386.868,209,390.868,205,386.868,209,395.868" style="stroke:#FFB000;stroke-width:1.0;"/></g><!--link poa to dp--><g id="link_poa_dp"><path d="M209,432.241 C209,449.2017 209,468.9455 209,485.8683 " fill="none" id="poa-to-dp" style="stroke:#FFB000;stroke-width:1.0;"/><polygon fill="#FFB000" points="209,491.8683,213,482.8683,209,486.8683,205,482.8683,209,491.8683" style="stroke:#FFB000;stroke-width:1.0;"/></g><!--SRC=[ROyn3i8m34NtdCAmT-40R9tX2iQnqaXfOpKEKc-FcnOe4eEbB_-N_E-J3ZmoqAmTZW-UdPkP5AUG6CuXAaWjmncmG92ZLIVpb8ish-hHAueQ2IXx1fmmBIMMXXN27uui6uqRnHuyOegwxDmHyomfBw0Pa5XiIzme__DPV-bRdos9BtmqxpT0aJa_CJLRClvFCCPNqfYdBKASSq6WwwxhZRjQp_X8LxKfQsFxhtmhl-tMGZPDh-as6o4l]--></g></svg>