<?xml version="1.0" encoding="us-ascii" standalone="no"?><svg xmlns="http://www.w3.org/2000/svg" xmlns:xlink="http://www.w3.org/1999/xlink" contentStyleType="text/css" height="736px" preserveAspectRatio="none" style="width:1197px;height:736px;background:#FFFFFF;" version="1.1" viewBox="0 0 1197 736" width="1197px" zoomAndPan="magnify"><defs/><g><!--cluster build--><g id="cluster_build"><rect fill="none" height="607" rx="2.5" ry="2.5" style="stroke:#181818;stroke-width:1.0;" width="242" x="195" y="7"/><text fill="#000000" font-family="sans-serif" font-size="14" font-weight="bold" lengthAdjust="spacing" textLength="105" x="263.5" y="21.9951">Development</text></g><!--cluster promote_to_test--><g id="cluster_promote_to_test"><rect fill="none" height="87" rx="2.5" ry="2.5" style="stroke:#181818;stroke-width:1.0;" width="184" x="461" y="527"/><text fill="#000000" font-family="sans-serif" font-size="14" font-weight="bold" lengthAdjust="spacing" textLength="37" x="534.5" y="541.9951">Test</text></g><!--cluster promote_to_acceptance--><g id="cluster_promote_to_acceptance"><rect fill="none" height="87" rx="2.5" ry="2.5" style="stroke:#181818;stroke-width:1.0;" width="184" x="669" y="527"/><text fill="#000000" font-family="sans-serif" font-size="14" font-weight="bold" lengthAdjust="spacing" textLength="94" x="714" y="541.9951">Acceptance</text></g><!--cluster promote_to_pro--><g id="cluster_promote_to_pro"><rect fill="none" height="203" rx="2.5" ry="2.5" style="stroke:#181818;stroke-width:1.0;" width="190" x="877" y="527"/><text fill="#000000" font-family="sans-serif" font-size="14" font-weight="bold" lengthAdjust="spacing" textLength="89" x="927.5" y="541.9951">Production</text></g><!--entity static_code_analysis--><g id="elem_static_code_analysis"><rect fill="#F1F1F1" height="36.2969" rx="2.5" ry="2.5" style="stroke:#181818;stroke-width:0.5;" width="210" x="211" y="158"/><text fill="#000000" font-family="sans-serif" font-size="14" lengthAdjust="spacing" textLength="190" x="221" y="180.9951">An&#225;lisis est&#225;tico de c&#243;digo</text></g><!--entity unit_test--><g id="elem_unit_test"><rect fill="#F1F1F1" height="36.2969" rx="2.5" ry="2.5" style="stroke:#181818;stroke-width:0.5;" width="118" x="280" y="42"/><text fill="#000000" font-family="sans-serif" font-size="14" lengthAdjust="spacing" textLength="98" x="290" y="64.9951">Tets unitarios</text></g><!--entity preparation--><g id="elem_preparation"><rect fill="#F1F1F1" height="36.2969" rx="2.5" ry="2.5" style="stroke:#181818;stroke-width:0.5;" width="106" x="273" y="254"/><text fill="#000000" font-family="sans-serif" font-size="14" lengthAdjust="spacing" textLength="86" x="283" y="276.9951">Preparaci&#243;n</text></g><!--entity featurization--><g id="elem_featurization"><rect fill="#F1F1F1" height="36.2969" rx="2.5" ry="2.5" style="stroke:#181818;stroke-width:0.5;" width="116" x="288" y="350"/><text fill="#000000" font-family="sans-serif" font-size="14" lengthAdjust="spacing" textLength="96" x="298" y="372.9951">Featurizaci&#243;n</text></g><!--entity training--><g id="elem_training"><rect fill="#F1F1F1" height="36.2969" rx="2.5" ry="2.5" style="stroke:#181818;stroke-width:0.5;" width="129" x="286.5" y="446"/><text fill="#000000" font-family="sans-serif" font-size="14" lengthAdjust="spacing" textLength="109" x="296.5" y="468.9951">Entrenamiento</text></g><!--entity evaluation--><g id="elem_evaluation"><rect fill="#F1F1F1" height="36.2969" rx="2.5" ry="2.5" style="stroke:#181818;stroke-width:0.5;" width="95" x="314.5" y="562"/><text fill="#000000" font-family="sans-serif" font-size="14" lengthAdjust="spacing" textLength="75" x="324.5" y="584.9951">Evaluaci&#243;n</text></g><!--entity model_promotion_test--><g id="elem_model_promotion_test"><rect fill="#F1F1F1" height="36.2969" rx="2.5" ry="2.5" style="stroke:#181818;stroke-width:0.5;" width="151" x="477.5" y="562"/><text fill="#000000" font-family="sans-serif" font-size="14" lengthAdjust="spacing" textLength="131" x="487.5" y="584.9951">Desplegar modelo</text></g><!--entity model_promotion_acc--><g id="elem_model_promotion_acc"><rect fill="#F1F1F1" height="36.2969" rx="2.5" ry="2.5" style="stroke:#181818;stroke-width:0.5;" width="151" x="685.5" y="562"/><text fill="#000000" font-family="sans-serif" font-size="14" lengthAdjust="spacing" textLength="131" x="695.5" y="584.9951">Desplegar modelo</text></g><!--entity promotion_check--><g id="elem_promotion_check"><rect fill="#F1F1F1" height="36.2969" rx="2.5" ry="2.5" style="stroke:#181818;stroke-width:0.5;" width="158" x="893" y="562"/><text fill="#000000" font-family="sans-serif" font-size="14" lengthAdjust="spacing" textLength="138" x="903" y="584.9951">Aprobaci&#243;n manual</text></g><!--entity model_promotion_pro--><g id="elem_model_promotion_pro"><rect fill="#F1F1F1" height="36.2969" rx="2.5" ry="2.5" style="stroke:#181818;stroke-width:0.5;" width="151" x="896.5" y="678"/><text fill="#000000" font-family="sans-serif" font-size="14" lengthAdjust="spacing" textLength="131" x="906.5" y="700.9951">Desplegar modelo</text></g><!--entity user--><g id="elem_user"><ellipse cx="54" cy="30.5" fill="#F1F1F1" rx="8" ry="8" style="stroke:#181818;stroke-width:0.5;"/><path d="M54,38.5 L54,65.5 M41,46.5 L67,46.5 M54,65.5 L41,80.5 M54,65.5 L67,80.5 " fill="none" style="stroke:#181818;stroke-width:0.5;"/><text fill="#000000" font-family="sans-serif" font-size="14" lengthAdjust="spacing" textLength="96" x="6" y="94.9951">Desarrollador</text></g><!--entity PO--><g id="elem_PO"><ellipse cx="1138" cy="550.5" fill="#F1F1F1" rx="8" ry="8" style="stroke:#181818;stroke-width:0.5;"/><path d="M1138,558.5 L1138,585.5 M1125,566.5 L1151,566.5 M1138,585.5 L1125,600.5 M1138,585.5 L1151,600.5 " fill="none" style="stroke:#181818;stroke-width:0.5;"/><text fill="#000000" font-family="sans-serif" font-size="14" lengthAdjust="spacing" textLength="104" x="1086" y="614.9951">Product owner</text></g><!--entity git--><g id="elem_git"><rect fill="#F1F1F1" height="36.2969" rx="2.5" ry="2.5" style="stroke:#181818;stroke-width:0.5;" width="42" x="137" y="42"/><text fill="#000000" font-family="sans-serif" font-size="14" lengthAdjust="spacing" textLength="22" x="147" y="64.9951">Git</text></g><!--entity sonar--><g id="elem_sonar"><rect fill="#F1F1F1" height="36.2969" rx="2.5" ry="2.5" style="stroke:#181818;stroke-width:0.5;" width="61" x="456.5" y="158"/><text fill="#000000" font-family="sans-serif" font-size="14" lengthAdjust="spacing" textLength="41" x="466.5" y="180.9951">Sonar</text></g><!--link user to git--><g id="link_user_git"><path d="M102.0425,60 C114.284,60 120.819,60 130.914,60 " fill="none" id="user-to-git" style="stroke:#181818;stroke-width:1.0;"/><polygon fill="#181818" points="136.914,60,127.914,56,131.914,60,127.914,64,136.914,60" style="stroke:#181818;stroke-width:1.0;"/><text fill="#000000" font-family="sans-serif" font-size="13" lengthAdjust="spacing" textLength="31" x="103.9782" y="73.0669">push</text></g><!--link git to unit_test--><g id="link_git_unit_test"><path d="M179.117,60 C203.643,60 239.159,60 273.739,60 " fill="none" id="git-to-unit_test" style="stroke:#181818;stroke-width:1.0;"/><polygon fill="#181818" points="279.739,60,270.739,56,274.739,60,270.739,64,279.739,60" style="stroke:#181818;stroke-width:1.0;"/></g><!--link unit_test to static_code_analysis--><g id="link_unit_test_static_code_analysis"><path d="M339,78.125 C339,99.79 339,129.842 339,151.619 " fill="none" id="unit_test-to-static_code_analysis" style="stroke:#181818;stroke-width:1.0;"/><polygon fill="#181818" points="339,157.619,343,148.619,339,152.619,335,148.619,339,157.619" style="stroke:#181818;stroke-width:1.0;"/></g><!--link unit_test to sonar--><g id="link_unit_test_sonar"><path d="M398.345,54 C443.226,54 497.167,54 497.167,54 C497.167,54 497.167,118.062 497.167,151.998 " fill="none" id="unit_test-to-sonar" style="stroke:#181818;stroke-width:1.0;"/><polygon fill="#181818" points="497.167,157.998,501.167,148.998,497.167,152.998,493.167,148.998,497.167,157.998" style="stroke:#181818;stroke-width:1.0;"/></g><!--reverse link unit_test to sonar--><g id="link_unit_test_sonar"><path d="M404.254,66 C441.611,66 476.833,66 476.833,66 C476.833,66 476.833,126.593 476.833,157.836 " fill="none" id="unit_test-backto-sonar" style="stroke:#181818;stroke-width:1.0;"/><polygon fill="#181818" points="398.254,66,407.254,70,403.254,66,407.254,62,398.254,66" style="stroke:#181818;stroke-width:1.0;"/></g><!--link static_code_analysis to sonar--><g id="link_static_code_analysis_sonar"><path d="M421.376,170 C434.022,170 440.054,170 450.281,170 " fill="none" id="static_code_analysis-to-sonar" style="stroke:#181818;stroke-width:1.0;"/><polygon fill="#181818" points="456.281,170,447.281,166,451.281,170,447.281,174,456.281,170" style="stroke:#181818;stroke-width:1.0;"/></g><!--reverse link static_code_analysis to sonar--><g id="link_static_code_analysis_sonar"><path d="M427.376,182 C440.022,182 446.054,182 456.281,182 " fill="none" id="static_code_analysis-backto-sonar" style="stroke:#181818;stroke-width:1.0;"/><polygon fill="#181818" points="421.376,182,430.376,186,426.376,182,430.376,178,421.376,182" style="stroke:#181818;stroke-width:1.0;"/></g><!--link static_code_analysis to preparation--><g id="link_static_code_analysis_preparation"><path d="M326,194.057 C326,211.112 326,230.563 326,247.698 " fill="none" id="static_code_analysis-to-preparation" style="stroke:#181818;stroke-width:1.0;"/><polygon fill="#181818" points="326,253.698,330,244.698,326,248.698,322,244.698,326,253.698" style="stroke:#181818;stroke-width:1.0;"/></g><!--link preparation to featurization--><g id="link_preparation_featurization"><path d="M333.5,290.057 C333.5,307.112 333.5,326.563 333.5,343.698 " fill="none" id="preparation-to-featurization" style="stroke:#181818;stroke-width:1.0;"/><polygon fill="#181818" points="333.5,349.698,337.5,340.698,333.5,344.698,329.5,340.698,333.5,349.698" style="stroke:#181818;stroke-width:1.0;"/></g><!--link featurization to training--><g id="link_featurization_training"><path d="M346,386.057 C346,403.112 346,422.563 346,439.698 " fill="none" id="featurization-to-training" style="stroke:#181818;stroke-width:1.0;"/><polygon fill="#181818" points="346,445.698,350,436.698,346,440.698,342,436.698,346,445.698" style="stroke:#181818;stroke-width:1.0;"/></g><!--link training to evaluation--><g id="link_training_evaluation"><path d="M362,482.125 C362,503.79 362,533.842 362,555.619 " fill="none" id="training-to-evaluation" style="stroke:#181818;stroke-width:1.0;"/><polygon fill="#181818" points="362,561.619,366,552.619,362,556.619,358,552.619,362,561.619" style="stroke:#181818;stroke-width:1.0;"/></g><!--link evaluation to model_promotion_test--><g id="link_evaluation_model_promotion_test"><path d="M409.705,580 C430.146,580 448.524,580 471.324,580 " fill="none" id="evaluation-to-model_promotion_test" style="stroke:#181818;stroke-width:1.0;"/><polygon fill="#181818" points="477.324,580,468.324,576,472.324,580,468.324,584,477.324,580" style="stroke:#181818;stroke-width:1.0;"/></g><!--link model_promotion_test to model_promotion_acc--><g id="link_model_promotion_test_model_promotion_acc"><path d="M628.681,580 C647.15,580 660.909,580 679.375,580 " fill="none" id="model_promotion_test-to-model_promotion_acc" style="stroke:#181818;stroke-width:1.0;"/><polygon fill="#181818" points="685.375,580,676.375,576,680.375,580,676.375,584,685.375,580" style="stroke:#181818;stroke-width:1.0;"/></g><!--link model_promotion_acc to promotion_check--><g id="link_model_promotion_acc_promotion_check"><path d="M836.58,580 C854.79,580 868.298,580 886.674,580 " fill="none" id="model_promotion_acc-to-promotion_check" style="stroke:#181818;stroke-width:1.0;"/><polygon fill="#181818" points="892.674,580,883.674,576,887.674,580,883.674,584,892.674,580" style="stroke:#181818;stroke-width:1.0;"/></g><!--link promotion_check to model_promotion_pro--><g id="link_promotion_check_model_promotion_pro"><path d="M972,598.125 C972,619.79 972,649.842 972,671.6195 " fill="none" id="promotion_check-to-model_promotion_pro" style="stroke:#181818;stroke-width:1.0;"/><polygon fill="#181818" points="972,677.6195,976,668.6195,972,672.6195,968,668.6195,972,677.6195" style="stroke:#181818;stroke-width:1.0;"/></g><!--link PO to promotion_check--><g id="link_PO_promotion_check"><path d="M1085.93,580 C1074.9,580 1069.02,580 1057.24,580 " fill="none" id="PO-to-promotion_check" style="stroke:#181818;stroke-width:1.0;"/><polygon fill="#181818" points="1051.24,580,1060.24,584,1056.24,580,1060.24,576,1051.24,580" style="stroke:#181818;stroke-width:1.0;"/></g><!--SRC=[dL91JYGn3BptAwovpmSuh8J4BaT6MkujapOz4UcavRXPiQjz36_W2VCnd8GPqapcmYMoovLox5Hyidv6nWcSzIGlCq5WsOUkGoE1OND34Pc3SpW4tW16M2BniRhZC2n68FpnLAgxkux92FhH4MnkhMHqj5B3luF7GeyfwghQmsBTa2hQ-PbSc2Vogl6l0wW4hltXrTbe8r2KmwjO4s0WC8UtmOwXA0igt9imK8yUtOkoroBt93gDju9iGoopQTQBQgwPEwQq96CFRpxpvWA83NxD_4Ke2zk_5VVn29spVtfXyZXPdR6yMXYjjtxymdj6jrIIbFEizxzUtinX2aAzX3n4NkEz1cVxqr-T7Ot8CEb-NEcTmxveg7JPmoLzD8PcXGtbBjUdz7kzLEvYAmrpZm-pAVtS3yfvA0k22Vs2xkERZlfcJ-Rf6-_IABqhUHwsFvAFuGhc9UwxBiKAVLhc5C5MyQR_AWedJdP_Fc7hLcAjwnSkDJkrxokxjcuLvzhQggiirq_kF0OPhTpu6QRLD0tL0blav8W61dc4zRT-oVEZMX-vkslSVWS0]--></g></svg>